<svg xmlns="http://www.w3.org/2000/svg" viewBox="0 0 1024 1024" width="1024" height="1024"><rect width="1024" height="1024" fill="#1F5FA6"></rect><g transform="translate(55.46774193548384 50.991935483870975) scale(2.9838709677419355)"><path fill="#FFFFFF" opacity="1.000000" stroke="none" d="&#xA;M150.079559,247.505768 &#xA;&#x9;C149.483124,243.630249 149.563187,240.148224 148.793198,236.686096 &#xA;&#x9;C146.323288,225.580521 132.991470,217.028046 121.633614,221.849609 &#xA;&#x9;C118.113281,223.344055 114.469170,224.544479 110.900223,225.927277 &#xA;&#x9;C94.190727,232.401367 75.276428,226.882492 65.581299,211.845551 &#xA;&#x9;C61.240704,205.113388 55.908669,200.541565 48.795902,196.969345 &#xA;&#x9;C31.169832,188.117050 24.237333,166.995651 32.777405,149.176239 &#xA;&#x9;C35.418957,143.664474 36.348225,138.514252 34.792313,132.427551 &#xA;&#x9;C31.647526,120.125191 35.051571,109.023628 42.826054,99.248917 &#xA;&#x9;C44.957611,96.568939 47.817062,93.060165 51.422089,94.619690 &#xA;&#x9;C55.290874,96.293312 54.728462,100.947067 54.068939,104.447830 &#xA;&#x9;C53.181171,109.160118 51.326153,113.680878 50.146027,118.349510 &#xA;&#x9;C48.276375,125.745895 50.865082,132.238907 57.094872,136.609634 &#xA;&#x9;C66.697342,143.346588 77.225876,142.361908 87.866257,140.313293 &#xA;&#x9;C90.984421,139.712936 94.098885,139.129852 97.267731,139.542099 &#xA;&#x9;C100.630074,139.979477 103.396324,141.432022 104.163361,145.059631 &#xA;&#x9;C104.904907,148.566711 103.379211,151.203674 100.496696,153.158859 &#xA;&#x9;C98.106117,154.780365 95.347504,155.498459 92.635475,156.263657 &#xA;&#x9;C85.137169,158.379364 78.515251,161.977753 72.618797,167.110474 &#xA;&#x9;C65.609222,173.212128 60.037563,171.784058 56.400478,163.243317 &#xA;&#x9;C56.009918,162.326202 55.683601,161.336563 55.093399,160.558014 &#xA;&#x9;C53.288967,158.177780 50.817764,156.359955 47.854187,157.033188 &#xA;&#x9;C44.703964,157.748825 44.568211,160.960358 44.402096,163.578140 &#xA;&#x9;C43.912651,171.291122 49.348122,180.175018 56.456505,183.444489 &#xA;&#x9;C64.475594,187.132843 73.059601,187.286942 78.561249,180.401718 &#xA;&#x9;C88.551208,167.899460 102.532959,162.299820 115.971397,155.457916 &#xA;&#x9;C119.226334,153.800751 122.361130,151.870758 125.403419,149.844391 &#xA;&#x9;C127.847069,148.216766 128.272476,146.138824 125.542915,144.302689 &#xA;&#x9;C119.880234,140.493484 114.245926,136.629547 108.430260,133.064987 &#xA;&#x9;C104.866081,130.880402 100.765427,131.091766 96.747231,131.662369 &#xA;&#x9;C91.433212,132.417038 86.155548,132.501541 80.850861,131.410233 &#xA;&#x9;C70.457443,129.272034 64.173607,123.471695 62.507175,112.913475 &#xA;&#x9;C61.057076,103.725868 59.909489,94.351349 60.866985,85.065346 &#xA;&#x9;C62.144558,72.675179 69.243202,63.992126 80.855537,59.926292 &#xA;&#x9;C89.844925,56.778835 97.356247,52.618355 103.931183,45.251247 &#xA;&#x9;C115.833557,31.914816 135.417343,31.534990 148.822952,43.436092 &#xA;&#x9;C152.229553,46.460365 154.044052,46.232738 157.399826,43.460281 &#xA;&#x9;C172.125381,31.294338 189.646851,32.182991 201.129990,45.285824 &#xA;&#x9;C206.364807,51.259022 207.994751,58.496380 208.095108,66.137466 &#xA;&#x9;C208.246078,77.632545 208.077347,89.131699 208.209839,100.627213 &#xA;&#x9;C208.325668,110.675560 212.610046,114.888062 222.560822,115.071243 &#xA;&#x9;C231.218079,115.230614 239.873657,114.874603 248.535034,115.551514 &#xA;&#x9;C264.904449,116.830826 277.257202,130.550369 277.175659,147.684448 &#xA;&#x9;C277.095642,164.489777 263.737976,178.724884 247.279404,179.256317 &#xA;&#x9;C239.123154,179.519653 230.951767,179.302139 222.787323,179.327530 &#xA;&#x9;C213.049515,179.357803 208.336243,183.787811 208.229004,193.621170 &#xA;&#x9;C208.052734,209.781662 208.239273,225.945816 208.123199,242.107361 &#xA;&#x9;C208.051834,252.044037 205.029816,260.916809 196.956772,267.218536 &#xA;&#x9;C179.383377,280.936035 152.965546,270.731415 150.079559,247.505768 &#xA;M113.395561,64.062943 &#xA;&#x9;C114.386856,68.336655 117.477058,71.225311 120.201248,74.350014 &#xA;&#x9;C126.614525,81.706169 128.839432,90.248459 127.654045,99.851494 &#xA;&#x9;C126.910820,105.872581 124.920746,111.479973 122.620995,117.034470 &#xA;&#x9;C121.816864,118.976669 121.052139,120.910225 122.345825,123.204475 &#xA;&#x9;C128.807068,134.662918 149.383774,141.044479 161.257950,135.153946 &#xA;&#x9;C163.936478,133.825180 166.554703,132.269150 169.374451,131.351944 &#xA;&#x9;C175.994431,129.198624 182.877625,131.662674 187.077637,137.335693 &#xA;&#x9;C191.224411,142.936737 191.505508,150.420105 187.781448,156.071671 &#xA;&#x9;C184.095566,161.665298 177.086075,164.364822 170.262421,162.468536 &#xA;&#x9;C166.431000,161.403793 162.788528,159.677444 158.990280,158.471741 &#xA;&#x9;C146.990585,154.662613 137.118759,161.546097 136.330124,174.180130 &#xA;&#x9;C135.720917,183.939545 138.367859,192.982300 142.699310,201.554657 &#xA;&#x9;C144.043610,204.215164 145.360489,208.338943 149.225098,207.228409 &#xA;&#x9;C152.674515,206.237183 152.334152,202.138947 152.690002,199.050644 &#xA;&#x9;C153.694107,190.336426 150.832138,182.697174 146.267334,175.445389 &#xA;&#x9;C144.447037,172.553635 143.349426,169.188614 146.235123,166.242538 &#xA;&#x9;C149.120911,163.296371 152.550751,163.829071 155.953842,165.381668 &#xA;&#x9;C157.956772,166.295456 159.626648,167.656372 161.103973,169.270355 &#xA;&#x9;C166.793915,175.486633 169.175369,182.949066 169.205170,191.227936 &#xA;&#x9;C169.263336,207.389938 169.257980,223.552277 169.235306,239.714401 &#xA;&#x9;C169.231277,242.587448 169.530121,245.392258 170.770432,247.988403 &#xA;&#x9;C172.510605,251.630783 175.560944,253.754089 179.527969,253.468399 &#xA;&#x9;C183.273514,253.198669 185.854858,250.919586 187.026093,247.109222 &#xA;&#x9;C187.883331,244.320480 187.783615,241.511612 187.789017,238.695328 &#xA;&#x9;C187.819077,223.032990 187.683502,207.369476 187.829514,191.708450 &#xA;&#x9;C188.014099,171.910416 202.752777,157.916382 222.368088,158.503632 &#xA;&#x9;C229.693314,158.722931 237.033340,158.742279 244.359344,158.559799 &#xA;&#x9;C252.240814,158.363464 256.403961,154.784683 256.758850,148.401459 &#xA;&#x9;C257.217194,140.158203 253.106125,135.593857 244.629318,135.402008 &#xA;&#x9;C236.135757,135.209793 227.634354,135.396530 219.137390,135.314240 &#xA;&#x9;C206.403351,135.190918 195.232849,127.430656 190.448334,115.600677 &#xA;&#x9;C188.545471,110.895721 187.679092,106.052269 187.696960,100.983742 &#xA;&#x9;C187.739258,88.987335 187.811218,76.988235 187.602203,64.994919 &#xA;&#x9;C187.497528,58.987812 183.663986,55.216866 178.434784,55.231800 &#xA;&#x9;C173.183151,55.246799 169.699326,58.986458 169.337189,65.054329 &#xA;&#x9;C169.247955,66.549500 169.278427,68.052574 169.275803,69.552048 &#xA;&#x9;C169.256927,80.382401 169.384842,91.215485 169.174835,102.042053 &#xA;&#x9;C169.052048,108.371315 168.394241,114.708809 164.962463,120.307838 &#xA;&#x9;C160.649094,127.345169 152.997787,130.877441 145.885880,129.230621 &#xA;&#x9;C139.422119,127.733887 134.780304,121.763290 133.614639,113.817032 &#xA;&#x9;C132.070465,103.290657 135.659882,93.783127 139.321976,84.309303 &#xA;&#x9;C141.819916,77.847168 143.422256,71.295227 142.671692,64.325310 &#xA;&#x9;C141.791428,56.151047 135.241364,50.300335 127.109909,50.384933 &#xA;&#x9;C119.537399,50.463718 113.999611,55.660332 113.395561,64.062943 &#xA;M82.408882,208.145554 &#xA;&#x9;C94.278358,216.152390 105.883102,213.724655 113.476105,201.544754 &#xA;&#x9;C117.587959,194.948944 119.806999,187.645111 120.658409,179.972595 &#xA;&#x9;C121.059975,176.353928 122.742714,172.667328 120.984360,168.884476 &#xA;&#x9;C118.669586,169.580124 117.363190,171.131119 115.958069,172.519684 &#xA;&#x9;C112.000114,176.431015 109.325562,181.251709 106.716026,186.068405 &#xA;&#x9;C102.791656,193.312057 97.089714,197.770340 88.714104,198.510727 &#xA;&#x9;C87.233994,198.641556 85.747383,198.961212 84.322273,199.388687 &#xA;&#x9;C82.325264,199.987717 79.487442,199.627457 78.714050,201.909744 &#xA;&#x9;C77.851112,204.456345 80.305222,206.002869 82.408882,208.145554 &#xA;M81.613647,77.146599 &#xA;&#x9;C76.958786,83.089012 77.347908,87.152458 83.553558,91.338684 &#xA;&#x9;C91.124634,96.446014 99.612198,100.202156 106.017761,107.018623 &#xA;&#x9;C107.426697,108.517944 108.566147,110.522713 111.524742,111.204559 &#xA;&#x9;C112.389168,103.576111 110.338333,97.301918 104.772217,92.309647 &#xA;&#x9;C98.547867,86.727013 91.890335,81.494904 92.583611,71.637314 &#xA;&#x9;C87.949722,72.303566 84.938744,74.261719 81.613647,77.146599 &#xA;M151.261032,86.328842 &#xA;&#x9;C147.052643,91.317719 145.596649,97.110573 146.260025,103.514259 &#xA;&#x9;C146.463745,105.480743 147.227768,107.172714 149.379288,107.461403 &#xA;&#x9;C151.358337,107.726952 152.920380,106.649216 153.999359,105.053490 &#xA;&#x9;C156.521057,101.324127 155.123779,89.564598 151.261032,86.328842 &#xA;z"></path></g></svg>